<?xml version="1.0" encoding="utf-8"?>
<!-- Generator: Adobe Illustrator 19.0.0, SVG Export Plug-In . SVG Version: 6.00 Build 0)  -->
<svg version="1.1" xmlns="http://www.w3.org/2000/svg" xmlns:xlink="http://www.w3.org/1999/xlink" x="0px" y="0px"
	 viewBox="0 0 266.7 171.7" style="enable-background:new 0 0 266.7 171.7;" xml:space="preserve">
<style type="text/css">
	.st0{display:none;}
	.st1{fill:url(#XMLID_19_);}
	.st2{fill:#FFFFFF;stroke:#FFFFFF;stroke-miterlimit:10;}
</style>
<g id="Laag_1" class="st0">
</g>
<g id="Laag_2">
	<linearGradient id="XMLID_19_" gradientUnits="userSpaceOnUse" x1="62.94" y1="15.4399" x2="204.1679" y2="156.6678">
		<stop  offset="0" style="stop-color:#D65394"/>
		<stop  offset="0.5" style="stop-color:#A5287B"/>
		<stop  offset="1" style="stop-color:#512465"/>
	</linearGradient>
	<path id="XMLID_9_" class="st1" d="M261.5,98.6l-67.9,67.9c-7,7-18.5,7-25.5,0c-10.6-10.6-21.3-21.3-31.9-31.9l17.8-23.5
		l-20.7,20.6c0,0-23.2,23.2-34.8,34.8c-7,7-18.5,7-25.5,0L5.3,98.6c-7-7-7-18.5,0-25.5L73.1,5.2c7-7,18.5-7,25.5,0l31.9,31.9
		l-17.8,23.5L133.4,40l-2.9-2.9l2.9,2.9l34.8-34.8c7-7,18.5-7,25.5,0l67.9,67.9C268.5,80.1,268.5,91.6,261.5,98.6z"/>
	<g id="XMLID_1_">
		<path id="XMLID_11_" class="st2" d="M83,82.4L95.2,59h9.1L87.2,90.4v19.9h-8.4V90.7L61.7,59h9.1L83,82.4z"/>
	</g>
	<g id="XMLID_4_">
		<g id="XMLID_3_">
			<path id="XMLID_8_" class="st2" d="M184.8,82.5h18.9v25.8c-3.1,1-6.1,1.7-8.9,2.1s-5.9,0.6-9.2,0.6c-7.8,0-13.8-2.3-18-6.9
				s-6.3-11.1-6.3-19.5c0-8.3,2.4-14.7,7.1-19.4c4.8-4.7,11.3-7,19.7-7c5.4,0,10.5,1,15.3,3.1l-3,7c-4.2-1.9-8.3-2.9-12.5-2.9
				c-5.5,0-9.8,1.7-13,5.2c-3.2,3.4-4.8,8.2-4.8,14.1c0,6.3,1.4,11.1,4.3,14.3c2.9,3.3,7,4.9,12.4,4.9c2.7,0,5.6-0.3,8.7-1V89.7
				h-10.7V82.5z"/>
		</g>
	</g>
	<g id="XMLID_2_">
	</g>
	<g id="XMLID_13_">
	</g>
	<g id="XMLID_14_">
	</g>
	<g id="XMLID_15_">
	</g>
	<g id="XMLID_16_">
	</g>
	<g id="XMLID_17_">
	</g>
</g>
</svg>
